<?xml version="1.0" encoding="UTF-8" standalone="no"?>
<svg
   xmlns:dc="http://purl.org/dc/elements/1.1/"
   xmlns:cc="http://creativecommons.org/ns#"
   xmlns:rdf="http://www.w3.org/1999/02/22-rdf-syntax-ns#"
   xmlns:svg="http://www.w3.org/2000/svg"
   xmlns="http://www.w3.org/2000/svg"
   viewBox="0 0 3405.3333 2350.6667"
   height="2350.6667"
   width="3405.3333"
   xml:space="preserve"
   id="svg2"
   version="1.1"><metadata
     id="metadata8"><rdf:RDF><cc:Work
         rdf:about=""><dc:format>image/svg+xml</dc:format><dc:type
           rdf:resource="http://purl.org/dc/dcmitype/StillImage" /></cc:Work></rdf:RDF></metadata><defs
     id="defs6" /><g
     transform="matrix(1.3333333,0,0,-1.3333333,0,2350.6667)"
     id="g10"><g
       transform="scale(0.1)"
       id="g12"><path
         id="path14"
         style="fill:#de623c;fill-opacity:1;fill-rule:nonzero;stroke:none"
         d="m 13305.8,10596 c -101.7,203.3 386.7,578.5 386.7,578.5 v 0 c -350.8,355.3 -724.7,749.5 -807.5,864.1 -147.7,204 -743.1,407.2 -1133.5,382.6 -82.5,-5.2 -174.9,-16.1 -273.4,-31 -335.2,160.3 -680.3,315.5 -854.8,363 -372.7,101.7 -813.17,67.8 -1152,0 C 9132.47,12685.5 6082.95,11194.6 5473.03,10889.6 4863.13,10584.7 2016.91,9805.36 2016.91,9805.36 1937.48,8509.63 2253.43,7214.1 2574.38,6270 c 540.53,191.9 2339.59,1316 2576.76,1451.52 237.19,135.53 525.2,0 525.2,0 942.73,-207.92 2352.17,341.25 2738.6,503.72 87.75,-5.09 180.29,1.1 277.93,20.72 C 10000.8,8508.67 11417,10651.6 11417,10651.6 l 909.2,-101.8 c 0,0 979.9,-734.23 1444.4,-734.79 1.2,-1.88 2.4,-3.76 3.6,-5.66 v 5.6 c 19.4,0.14 38.2,1.09 55.6,3.94 226.5,36.9 409.4,190.01 502.3,353.21 2.3,3.9 4.4,7.9 6.5,11.9 -341.3,-53.2 -957.2,260.8 -1032.8,412" /><path
         id="path16"
         style="fill:#de623c;fill-opacity:1;fill-rule:nonzero;stroke:none"
         d="m 10335.3,7840.11 c -125.1,-182.01 -181.3,-385.01 -201,-574.41 0,0 0.1,-41.8 26.8,-102.5 10.2,130.5 34.9,256 95.2,304.2 112.9,90.4 511.8,157.9 474.3,-55.2 0,0 -54.3,-344.9 -122.3,-595.1 483.4,-169.8 2186.4,-433.3 2403.8,-383.2 219.6,50.7 446.5,410.6 447.8,412.6 28.9,315.1 -105.2,567.8 -105.2,567.8 -182.7,-36.2 -3019.4,425.81 -3019.4,425.81" /><path
         id="path18"
         style="fill:#de623c;fill-opacity:1;fill-rule:nonzero;stroke:none"
         d="m 12132.9,9415.7 c 0,0 -611.6,0 -814.9,-67.77 -76.9,-25.61 -168.2,-150.52 -247.6,-311.82 61.1,2.38 119.8,-10.23 168.5,-43.95 0,0 -158.9,-552.5 -244.3,-858.22 437.2,-215.31 2143.7,-249.61 2339.4,-167.12 220.2,92.77 406.5,554.16 406.6,554.55 -66.6,276.65 -208.9,469.52 -208.9,469.52 -91.6,28.67 -926.2,340.1 -1315.8,577.29 16.9,-254.13 -83,-152.48 -83,-152.48" /><path
         id="path20"
         style="fill:#de623c;fill-opacity:1;fill-rule:nonzero;stroke:none"
         d="m 9940.33,6161.9 c -0.09,-3.8 -1.07,-60.5 8.09,-139.3 18.75,66.8 41.12,118.4 67.18,140.3 138.9,116.4 433.6,194.9 418.2,60.7 0,0 -48.8,-462.1 -109.7,-766.4 192.5,-144.5 399.7,-307.1 638.1,-293.9 304.9,16.9 1822.1,14.9 2122.4,388.7 61.6,292.1 -21.6,610.9 -21.6,610.9 0,0 -2609.1,321.9 -2863.2,406.6 -134.2,-128.1 -212.95,-273.6 -259.47,-407.6" /><path
         id="path22"
         style="fill:#DE7C5E;fill-opacity:1;fill-rule:nonzero;stroke:none"
         d="m 11234.4,12347.8 c -1339.91,252.8 -2745.73,-136.7 -2745.73,-136.7 -292.13,-163.6 -721.21,-837.9 -959.39,-1240.6 589.89,469.3 1821.37,867.1 1821.37,867.1 0,0 1065.15,351 1883.75,510.2" /><path
         id="path24"
         style="fill:#DE7C5E;fill-opacity:1;fill-rule:nonzero;stroke:none"
         d="m 13774.2,9809.35 c -1.2,1.9 -2.4,3.78 -3.6,5.66 -464.5,0.56 -1444.4,734.79 -1444.4,734.79 l -909.2,101.8 c 0,0 -1416.2,-2142.93 -2724.13,-2405.64 -97.64,-19.62 -190.18,-25.81 -277.93,-20.72 -386.43,-162.47 -1795.87,-711.64 -2738.6,-503.72 0,0 -288.01,135.53 -525.2,0 C 4913.97,7586 3114.91,6461.9 2574.38,6270 c 0.01,0 0.04,-0.1 0.05,-0.1 18.45,-54.3 36.9,-107.4 55.32,-159.3 36.81,-103.7 73.39,-202.6 109.14,-296 232.44,-607 430.07,-984 430.07,-984 154.93,85.5 311.07,170.6 465.05,253.8 92.39,49.9 183.99,99.2 274.08,147.4 90.11,48.2 178.68,95.4 265.02,141.3 86.33,45.8 170.43,90.4 251.54,133.2 81.12,42.9 159.25,84.1 233.69,123.3 372.17,196 651.64,342.2 746.93,397.7 114.36,66.8 244.8,69.1 337.04,58.5 20.51,-2.4 39.11,-5.4 55.24,-8.5 40.33,-7.8 65.14,-16.1 65.14,-16.1 31.78,-33.3 60.86,-65.3 89.03,-96 28.16,-30.6 55.4,-59.9 83.49,-87.8 9.35,-9.3 18.81,-18.4 28.41,-27.4 12.02,-11.2 24.29,-22.2 36.92,-33 25.28,-21.4 52.04,-41.9 81.33,-61.4 14.64,-9.8 29.91,-19.3 45.93,-28.5 12.84,-7.4 26.13,-14.6 39.99,-21.7 41.57,-21.2 88.07,-41 141.28,-59.2 53.21,-18.3 113.13,-35.1 181.48,-50.3 68.38,-15.3 145.2,-29.1 232.25,-41.2 29.02,-4.1 59.17,-8 90.52,-11.7 62.69,-7.5 130.2,-14.2 203.03,-20.3 36.41,-3 74.16,-5.9 113.3,-8.5 41.07,-2.8 83.89,-5.4 128.12,-7.9 80.57,-4.4 166.48,-8.1 258.23,-11.2 145.77,-5 306.06,-8.3 483.01,-9.9 23.26,-0.2 48.53,0.2 75.55,1.1 27.01,0.9 55.75,2.4 85.92,4.3 34.47,2.2 70.8,5 108.79,8.3 25.2,2.2 51.1,4.7 77.58,7.3 39.77,4 80.84,8.5 122.86,13.4 26.22,3 52.72,6.1 79.58,9.5 24.14,2.9 48.52,6 73.04,9.2 196.19,25.4 402.51,56.7 585.64,86.2 22.89,3.7 45.42,7.4 67.51,11 44.21,7.2 86.7,14.3 126.97,21.1 20.13,3.4 39.71,6.7 58.65,9.9 37.91,6.5 73.32,12.6 105.73,18.2 117.21,20.4 194.38,34.6 208.2,37.2 1.87,0.3 2.88,0.5 2.88,0.5 0,0 -4.77,-21.5 -8.94,-57.2 -2.09,-17.9 -4.02,-39.3 -5.14,-63.4 -1.12,-24.1 -1.42,-50.9 -0.22,-79.5 1.59,-38.1 5.83,-79.4 14.3,-121.8 -9.82,75.7 13.48,419.1 70.51,622.1 -9.16,78.8 -8.18,135.5 -8.09,139.3 46.52,134 125.27,279.5 259.47,407.6 254.1,-84.7 2863.2,-406.6 2863.2,-406.6 372.7,186.3 397,683.8 397,683.8 l -0.1,-0.2 c -1.3,-2 -228.2,-361.9 -447.8,-412.6 -217.4,-50.1 -1920.4,213.4 -2403.8,383.2 -36.4,-134.3 -76.8,-241.4 -114.8,-253.3 -109,-34.1 -338.9,135.6 -338.9,293.7 0,73.7 -2.3,191.6 6.5,305.7 -26.7,60.7 -26.8,102.5 -26.8,102.5 19.7,189.4 75.9,392.4 201,574.41 0,0 2836.7,-462.01 3019.4,-425.81 26.7,22.5 51.7,45.2 75.4,68 7.9,7.7 14.9,15.5 22.6,23.2 15,15.3 30.2,30.5 44,45.8 8.4,9.3 15.8,18.7 23.7,28 11.8,13.9 23.7,27.8 34.6,41.8 7.7,9.96 14.6,19.98 21.9,30 9.7,13.39 19.5,26.77 28.4,40.2 6.9,10.36 13,20.74 19.4,31.11 8.1,13.16 16.1,26.3 23.5,39.46 5.8,10.54 11.2,21.06 16.6,31.6 6.6,13.02 13.2,26.03 19.1,39.04 4.9,10.63 9.4,21.24 13.8,31.85 5.4,12.92 10.6,25.81 15.4,38.68 3.9,10.61 7.5,21.18 11,31.76 4.2,12.85 8.2,25.68 11.9,38.48 3,10.5 5.8,20.98 8.4,31.45 3.2,12.81 6.1,25.58 8.7,38.31 2.1,10.31 4.2,20.6 6,30.85 2.2,12.81 4,25.55 5.7,38.26 1.4,10.01 2.7,20.01 3.7,29.95 1.4,12.88 2.3,25.64 3.1,38.39 0.6,9.58 1.3,19.18 1.7,28.69 0.4,12.98 0.5,25.82 0.5,38.65 0,9.07 0.1,18.18 -0.1,27.17 -0.4,13.3 -1.2,26.41 -2,39.51 -0.5,8.21 -0.8,16.5 -1.5,24.63 -1.2,14.06 -2.8,27.85 -4.5,41.64 -0.8,6.95 -1.4,14.02 -2.4,20.9 -2.3,16.33 -5,32.33 -7.9,48.23 -0.7,4.05 -1.3,8.23 -2,12.25 -3.9,20.11 -8.1,39.86 -12.8,59.2 v 0.01 c -0.1,-0.39 -186.4,-461.78 -406.6,-554.55 -195.7,-82.49 -1902.2,-48.19 -2339.4,167.12 -23.8,-85.25 -42,-151.33 -49.4,-180.88 -33.8,-135.54 -203.3,-56.47 -304.9,0 -101.7,56.47 -146.8,259.77 -124.3,406.6 22.6,146.83 95.3,391.9 217.1,519.55 81.4,85.31 214.3,152.09 337.3,156.9 79.4,161.3 170.7,286.21 247.6,311.82 203.3,67.77 814.9,67.77 814.9,67.77 0,0 99.9,-101.65 83,152.48 389.6,-237.19 1224.2,-548.62 1315.8,-577.29 0,0 94.2,-30.61 242.5,-73.49 v 394.23 497.72" /><g
         transform="scale(1.05852)"
         id="g26"><path
           id="path28"
           style="fill:#0978B9;fill-opacity:1;fill-rule:nonzero;stroke:none"
           d="m 15474.1,7927.06 c 276.1,1.42 551.8,21.1 825.9,54.63 h -1701.5 c 290.2,-42.76 586.7,-56.14 875.6,-54.63" /></g><g
         transform="scale(1.44372)"
         id="g30"><path
           id="path32"
           style="fill:#0978B9;fill-opacity:1;fill-rule:nonzero;stroke:none"
           d="M 16100.5,8725.76 H 9740.23 c -109.72,0 -199.49,-89.77 -199.49,-199.49 v -832.62 c 85.13,-70.09 249.5,-206.7 375.56,-319.46 v 637.09 c 0,109.72 89.8,199.49 199.5,199.49 h 973.9 c 109.7,0 199.5,-89.77 199.5,-199.49 V 7107.7 c 0,-109.72 -89.8,-199.5 -199.5,-199.5 h -973.9 c -88,0 -162.3,58.09 -188.62,137.52 -64.35,-113.04 -191.04,-219.08 -347.92,-244.63 -12.06,-1.98 -25.08,-2.64 -38.52,-2.73 v -3.88 -344.75 c 55,-62.08 112.77,-121.59 174.97,-176.54 63.17,-55.78 130.36,-105.61 200.59,-150.29 v 104.69 h 2745.9 v -246.98 c 126,29.68 251.1,62.55 375.5,98.32 v 148.66 h 469.4 c 9.7,3.34 19.4,6.55 29.1,9.92 285.6,99.35 564.5,217.16 831.3,359.71 500,267.12 955.4,617.46 1337,1037.07 224.8,247.25 422.7,517.27 595.5,802.73 v 89.25 c 0,109.72 -89.8,199.49 -199.5,199.49" /></g><g
         transform="scale(1.44372)"
         id="g34"><path
           id="path36"
           style="fill:#0071b1;fill-opacity:1;fill-rule:nonzero;stroke:none"
           d="m 15704.5,7634.29 c -381.6,-419.61 -837,-769.95 -1337,-1037.07 -266.8,-142.55 -545.7,-260.36 -831.3,-359.71 -9.7,-3.37 -19.4,-6.58 -29.1,-9.92 H 14751 v -375.51 h -1713.3 v 226.85 c -124.4,-35.77 -249.5,-68.64 -375.5,-98.32 V 5852.08 H 11951 c -201,-24.58 -403.2,-39.01 -605.5,-40.05 -211.9,-1.11 -429.3,8.7 -642.1,40.05 h -787.1 v 270.82 c -70.23,44.68 -137.42,94.51 -200.59,150.29 -62.2,54.95 -119.97,114.46 -174.97,176.54 V 6176.67 4591.18 c 0,-13.71 1.39,-27.08 4.09,-40.03 16,-77.72 77.58,-139.37 155.36,-155.36 12.96,-2.64 26.33,-4.09 40.04,-4.09 h 6360.27 c 13.7,0 27.1,1.45 40.1,4.09 44.7,9.21 83.4,34.14 111.8,67.88 15.7,18.7 28.6,39.96 36.8,63.37 2.8,7.83 5.1,15.86 6.7,24.11 2.7,12.95 4.1,26.32 4.1,40.03 v 3845.84 c -172.8,-285.46 -370.7,-555.48 -595.5,-802.73" /></g><path
         id="path38"
         style="fill:#E1BA2B;fill-opacity:1;fill-rule:nonzero;stroke:none"
         d="m 14560.5,10391.3 c -19,-127.3 -104.2,-189 -221.9,-207.3 -2.1,-4 -4.2,-8 -6.5,-11.9 38,-114.7 145.3,-198.56 272.3,-198.56 h 1406.1 c 158.4,0 288,129.66 288,288.06 v 1304.5 c 0,158.4 -129.6,288 -288,288 h -1406.1 c -158.4,0 -288,-129.6 -288,-288 v -919.8 c 140.3,-125.5 247.7,-230.5 244.1,-255" /><g
         transform="scale(1.12152)"
         id="g40"><path
           id="path42"
           style="fill:#ffffff;fill-opacity:1;fill-rule:nonzero;stroke:none"
           d="m 13778.5,7533.37 h 1606 915.5 v 165.46 317.93 H 12765.2 V 7882 7533.37 h 1013.3" /></g><g
         transform="scale(1.30653)"
         id="g44"><path
           id="path46"
           style="fill:#ffffff;fill-opacity:1;fill-rule:nonzero;stroke:none"
           d="m 16300,6466.6 v 414.94 h -1374.6 -518.6 V 6717.27 6466.6 H 16300" /></g><g
         transform="scale(1.39695)"
         id="g48"><path
           id="path50"
           style="fill:#ffffff;fill-opacity:1;fill-rule:nonzero;stroke:none"
           d="m 15463.2,6048.02 h 836.8 v 388.08 h -836.8 v -388.08" /></g><g
         transform="scale(1.39695)"
         id="g52"><path
           id="path54"
           style="fill:#ffffff;fill-opacity:1;fill-rule:nonzero;stroke:none"
           d="M 13086.1,5558.32 H 16300 v 266.81 h -3213.9 v -266.81" /></g><g
         transform="scale(1.39695)"
         id="g56"><path
           id="path58"
           style="fill:#ffffff;fill-opacity:1;fill-rule:nonzero;stroke:none"
           d="M 10248.3,5114.21 H 16300 v 169.8 h -6051.7 v -169.8" /></g><path
         id="path60"
         style="fill:#d37c58;fill-opacity:1;fill-rule:nonzero;stroke:none"
         d="m 10962.2,5163.3 c -238.4,-13.2 -445.6,149.4 -638.1,293.9 -28.7,-143.3 -60.1,-251.7 -90.4,-260 -59.3,-16.2 -178.6,28.1 -262.82,88.2 14.03,-11.4 29.05,-23 45.42,-34.8 9.7,-6.9 19.7,-13.9 30,-20.9 128.9,-87.1 310,-179.6 466.3,-252 38.9,-18 76.2,-34.7 110.9,-49.8 20.7,-9.1 40.4,-17.5 59,-25.3 21.8,-9.1 41.8,-17.3 59.8,-24.5 5.6,-2.2 11,-4.3 16.1,-6.3 20.8,-8.1 38.3,-14.5 51.3,-18.8 28.6,-9.6 62.8,-16.7 101,-21.7 12.7,-1.7 25.9,-3.1 39.4,-4.4 40.4,-3.7 84.1,-5.4 129.4,-5.6 0.3,0 0.5,0 0.7,0 136.8,-0.5 288,13.3 407.2,31.7 21.3,3.2 43.8,6.3 67.3,9.3 70.6,9 150.6,16.9 236.2,25.9 57.1,6 116.8,12.4 177.9,20 61.1,7.5 123.6,16.1 186.5,26.5 251.7,41.4 509.5,110 704.4,245.5 0.1,0.1 0.2,0.2 0.3,0.3 14.4,10.1 27.8,20.9 40.7,32.1 3.9,3.4 7.5,6.8 11.2,10.3 9.4,8.7 18.3,17.6 26.8,26.8 3.3,3.5 6.6,7 9.7,10.6 22.5,25.8 42.1,53.5 59,82.7 1.5,2.7 2.9,5.4 4.4,8 7.1,12.9 13.9,26 20.1,39.4 1.1,2.5 2.3,4.9 3.4,7.3 22,49.2 38.1,101.3 49.3,154.2 0,0.1 0,0.1 0,0.1 -300.3,-373.8 -1817.5,-371.8 -2122.4,-388.7" /><path
         id="path62"
         style="fill:#f0c1ab;fill-opacity:1;fill-rule:nonzero;stroke:none"
         d="m 10256.3,7467.4 c -60.3,-48.2 -85,-173.7 -95.2,-304.2 -8.8,-114.1 -6.5,-232 -6.5,-305.7 0,-158.1 229.9,-327.8 338.9,-293.7 38,11.9 78.4,119 114.8,253.3 68,250.2 122.3,595.1 122.3,595.1 37.5,213.1 -361.4,145.6 -474.3,55.2" /><path
         id="path64"
         style="fill:#f0c1ab;fill-opacity:1;fill-rule:nonzero;stroke:none"
         d="m 10233.7,5197.2 c 30.3,8.3 61.7,116.7 90.4,260 60.9,304.3 109.7,766.4 109.7,766.4 15.4,134.2 -279.3,55.7 -418.2,-60.7 -26.06,-21.9 -48.43,-73.5 -67.18,-140.3 -57.03,-203 -80.33,-546.4 -70.51,-622.1 v 0 c 4.9,-37.6 42.66,-79.2 92.97,-115.1 84.22,-60.1 203.52,-104.4 262.82,-88.2" /><path
         id="path66"
         style="fill:#f0c1ab;fill-opacity:1;fill-rule:nonzero;stroke:none"
         d="m 11070.4,9036.11 c -123,-4.81 -255.9,-71.59 -337.3,-156.9 -121.8,-127.65 -194.5,-372.72 -217.1,-519.55 -22.5,-146.83 22.6,-350.13 124.3,-406.6 101.6,-56.47 271.1,-135.54 304.9,0 7.4,29.55 25.6,95.63 49.4,180.88 85.4,305.72 244.3,858.22 244.3,858.22 -48.7,33.72 -107.4,46.33 -168.5,43.95" /><path
         id="path68"
         style="fill:#f0c1ab;fill-opacity:1;fill-rule:nonzero;stroke:none"
         d="m 13305.8,10596 c 75.6,-151.2 691.5,-465.2 1032.8,-412 117.7,18.3 202.9,80 221.9,207.3 3.6,24.5 -103.8,129.5 -244.1,255 -182,162.8 -419.3,360 -542.2,461.2 -50.4,41.6 -81.6,66.9 -81.7,67 v 0 c 0,0 -488.4,-375.2 -386.7,-578.5" /></g></g></svg>